<?xml version="1.0" encoding="utf-8"?>
<svg id="master-artboard" viewBox="0 0 400 400" version="1.1" xmlns="http://www.w3.org/2000/svg" x="0px" y="0px" style="enable-background:new 0 0 336 235.2;" width="400px" height="400px"><rect id="ee-background" x="0" y="0" width="400" height="400" style="fill: white; fill-opacity: 0; pointer-events: none;"/><defs><style id="ee-google-fonts">@import url(https://fonts.googleapis.com/css?family=Acme:400);</style></defs><path d="M 214.62818908691406 465.84771728515625 C 202.40151977539062 465.84771728515625 192.5548553466797 461.74102783203125 185.0881805419922 453.5277099609375 C 177.62152099609375 445.3143615722656 173.88818359375 434.4410400390625 173.88818359375 420.90771484375 C 173.88818359375 405.5077209472656 178.5548553466797 392.53436279296875 187.88818359375 381.9877014160156 C 197.22152709960938 371.4410400390625 208.70152282714844 366.167724609375 222.32818603515625 366.167724609375 C 227.74151611328125 366.167724609375 232.7581787109375 366.65771484375 237.37818908691406 367.6376953125 C 241.99818420410156 368.6177062988281 245.28817749023438 369.62103271484375 247.24818420410156 370.647705078125 L 250.04818725585938 372.1877136230469 L 241.92819213867188 391.647705078125 C 239.12818908691406 389.7810363769531 235.3481903076172 388.0310363769531 230.58819580078125 386.397705078125 C 225.82818603515625 384.7643737792969 221.62818908691406 383.94769287109375 217.98818969726562 383.94769287109375 C 210.42819213867188 383.94769287109375 204.36151123046875 386.60772705078125 199.78819274902344 391.9277038574219 C 195.21485900878906 397.2477111816406 192.92819213867188 404.29437255859375 192.92819213867188 413.0677185058594 C 192.92819213867188 424.9210510253906 195.0981903076172 434.1610412597656 199.4381866455078 440.7877197265625 C 203.77818298339844 447.41436767578125 209.82151794433594 450.72772216796875 217.5681915283203 450.72772216796875 C 222.60818481445312 450.72772216796875 227.36819458007812 450.0277099609375 231.8481903076172 448.6277160644531 L 231.8481903076172 426.9277038574219 L 213.78817749023438 426.9277038574219 L 215.1881866455078 412.7877197265625 L 248.78817749023438 412.7877197265625 L 247.52818298339844 435.6076965332031 L 248.5081787109375 459.82769775390625 C 234.78817749023438 463.8410339355469 223.49485778808594 465.84771728515625 214.62818908691406 465.84771728515625 Z" transform="matrix(2.6217093467712402, 0, 0, 2.6217093467712402, -370.5957946777344, -887.5515747070312)" style="fill: rgb(222, 222, 222); white-space: pre; color: rgb(51, 51, 51);"/><path d="M 498.7351379394531 305.8579406738281 L 499.0251159667969 300.0279541015625 L 498.7351379394531 289.7779541015625 L 502.1451110839844 289.1779479980469 L 501.80511474609375 299.6179504394531 L 501.9751281738281 303.5079345703125 L 506.8951110839844 303.1179504394531 L 506.6351318359375 305.8579406738281 L 498.7351379394531 305.8579406738281 Z" transform="matrix(2.2858338356018066, 0, 0, 2.2858338356018066, -945.3806762695312, -509.564208984375)" style="fill: rgb(222, 222, 222); white-space: pre; color: rgb(51, 51, 51);"/><path d="M 573.1790161132812 276.19598388671875 L 571.9990234375 271.5159912109375 L 566.259033203125 271.5159912109375 L 564.989013671875 276.07598876953125 L 561.9190063476562 275.83599853515625 L 564.0289916992188 270.0059814453125 L 567.2490234375 259.68597412109375 L 571.5390014648438 259.3759765625 L 574.6390380859375 269.64599609375 L 576.6290283203125 275.6659851074219 L 573.1790161132812 276.19598388671875 M 569.3790283203125 262.4960021972656 L 569.0690307617188 262.4960021972656 L 567.009033203125 268.9759826660156 L 571.2789916992188 268.9759826660156 L 569.3790283203125 262.4960021972656 Z" transform="matrix(3.248685598373413, 0, 0, 3.248685598373413, -1650.707763671875, -817.5040893554688)" style="fill: rgb(222, 222, 222); white-space: pre; color: rgb(51, 51, 51);"/><path d="M 563.47900390625 276.1385192871094 L 563.76904296875 270.30853271484375 L 563.47900390625 259.5785217285156 L 572.47900390625 259.5785217285156 L 572.218994140625 262.1485290527344 L 566.8190307617188 262.1485290527344 L 566.6690063476562 266.3985290527344 L 571.468994140625 266.3985290527344 L 571.2090454101562 268.9385070800781 L 566.5790405273438 268.9385070800781 L 566.5490112304688 269.8985290527344 L 566.718994140625 273.5985107421875 L 572.5289916992188 273.5985107421875 L 572.259033203125 276.1385192871094 L 563.47900390625 276.1385192871094 Z" transform="matrix(1.676478385925293, 2.3012847900390625, -2.3012847900390625, 1.676478385925293, -201.32919311523438, -1675.259765625)" style="fill: rgb(222, 222, 222); white-space: pre; color: rgb(51, 51, 51);"/><path d="M 568.3990478515625 276.3984680175781 C 567.2656860351562 276.3984680175781 565.6256713867188 276.3117980957031 563.47900390625 276.1384582519531 L 563.76904296875 270.3084716796875 L 563.47900390625 259.5784606933594 L 569.8890380859375 259.5784606933594 C 572.0490112304688 259.5784606933594 573.7357177734375 260.2251281738281 574.9490356445312 261.5184631347656 C 576.1690063476562 262.8184509277344 576.7789916992188 264.61846923828125 576.7789916992188 266.91845703125 C 576.7789916992188 269.831787109375 576.0256958007812 272.14178466796875 574.51904296875 273.84844970703125 C 573.0123291015625 275.5484619140625 570.9723510742188 276.3984680175781 568.3990478515625 276.3984680175781 M 569.01904296875 262.16845703125 C 567.9656982421875 262.16845703125 567.2223510742188 262.178466796875 566.7890014648438 262.1984558105469 L 566.5490112304688 269.8984680175781 L 566.718994140625 273.7884521484375 C 568.065673828125 273.8818054199219 568.968994140625 273.928466796875 569.4290161132812 273.928466796875 C 570.6956787109375 273.928466796875 571.6923828125 273.41845703125 572.4190063476562 272.3984680175781 C 573.1456909179688 271.3717956542969 573.509033203125 269.8818054199219 573.509033203125 267.928466796875 C 573.509033203125 265.9751281738281 573.15234375 264.5284729003906 572.4390258789062 263.5884704589844 C 571.7323608398438 262.64178466796875 570.5923461914062 262.16845703125 569.01904296875 262.16845703125 Z" transform="matrix(0.893063485622406, -2.703507900238037, 2.703507900238037, 0.893063485622406, -962.9760131835938, 1359.19775390625)" style="fill: rgb(222, 222, 222); white-space: pre; color: rgb(51, 51, 51);"/><path d="M 505.45513916015625 289.45538330078125 C 507.341796875 289.45538330078125 508.8984680175781 290.1753845214844 510.1251220703125 291.6153564453125 C 511.3451232910156 293.05535888671875 511.95513916015625 294.8887023925781 511.95513916015625 297.1153564453125 C 511.95513916015625 299.9287109375 511.22845458984375 302.1986999511719 509.7751159667969 303.9253845214844 C 508.32177734375 305.65203857421875 506.408447265625 306.515380859375 504.0351257324219 306.515380859375 C 502.19512939453125 306.515380859375 500.65179443359375 305.7753601074219 499.4051208496094 304.2953796386719 C 498.158447265625 302.81536865234375 497.5351257324219 300.98870849609375 497.5351257324219 298.81536865234375 C 497.5351257324219 296.0953674316406 498.2784729003906 293.8553771972656 499.76513671875 292.0953674316406 C 501.2518005371094 290.3353576660156 503.1484680175781 289.45538330078125 505.45513916015625 289.45538330078125 M 508.69512939453125 298.45538330078125 C 508.69512939453125 294.40869140625 507.36846923828125 292.3853759765625 504.7151184082031 292.3853759765625 C 503.4951171875 292.3853759765625 502.5384521484375 292.8353576660156 501.8451232910156 293.7353820800781 C 501.1451110839844 294.64202880859375 500.7951354980469 295.995361328125 500.7951354980469 297.7953796386719 C 500.7951354980469 299.5953674316406 501.16845703125 301.07537841796875 501.9151306152344 302.2353820800781 C 502.66180419921875 303.3953857421875 503.6451110839844 303.9753723144531 504.8651123046875 303.9753723144531 C 506.091796875 303.9753723144531 507.0351257324219 303.4820251464844 507.69512939453125 302.495361328125 C 508.3617858886719 301.515380859375 508.69512939453125 300.168701171875 508.69512939453125 298.45538330078125 Z" transform="matrix(2.197925329208374, 0, 0, 2.197925329208374, -937.8585815429688, -502.36334228515625)" style="fill: rgb(222, 222, 222); white-space: pre; color: rgb(51, 51, 51);"/><path d="M 502.1451110839844 289.3504638671875 L 501.80511474609375 299.79046630859375 L 502.0951232910156 306.03045654296875 L 498.7351379394531 306.03045654296875 L 499.0251159667969 300.2004699707031 L 498.7351379394531 289.9504699707031 L 502.1451110839844 289.3504638671875 Z" transform="matrix(0.02613283507525921, 2.0219414234161377, -2.0219414234161377, 0.02613283507525921, 794.3999633789062, -746.8025512695312)" style="fill: rgb(222, 222, 222); white-space: pre; color: rgb(51, 51, 51);"/><path d="M 511.43511962890625 289.4892578125 L 511.1151123046875 299.8592834472656 L 511.3851318359375 305.56927490234375 L 508.55511474609375 306.1692810058594 L 501.3951110839844 294.5992736816406 L 501.3951110839844 299.8592834472656 L 501.7351379394531 306.0992736816406 L 498.7351379394531 306.0992736816406 L 499.0251159667969 300.269287109375 L 498.7351379394531 289.6092834472656 L 501.6151123046875 289.4692687988281 L 508.7451171875 301.19927978515625 L 508.505126953125 289.8492736816406 L 511.43511962890625 289.4892578125 Z" transform="matrix(2.9011969566345215, 0, 0, 2.9011969566345215, -1173.19677734375, -514.9210205078125)" style="fill: rgb(222, 222, 222); white-space: pre; color: rgb(51, 51, 51);"/></svg>